<?xml version="1.0" standalone="no"?>
<!DOCTYPE svg PUBLIC "-//W3C//DTD SVG 20010904//EN"
 "http://www.w3.org/TR/2001/REC-SVG-20010904/DTD/svg10.dtd">
<svg version="1.0" xmlns="http://www.w3.org/2000/svg"
 width="96.000000pt" height="96.000000pt" viewBox="0 0 96.000000 96.000000"
 preserveAspectRatio="xMidYMid meet">

<g transform="translate(0.000000,96.000000) scale(0.100000,-0.100000)"
fill="#000000" stroke="none">
<path d="M407 856 c-54 -20 -114 -64 -155 -113 l-35 -42 -25 19 c-45 36 -156
38 -169 4 -3 -8 8 -40 25 -72 16 -31 35 -75 42 -97 14 -46 37 -75 58 -75 16 0
15 -6 -12 -105 -30 -109 -16 -197 39 -252 39 -39 62 -41 186 -17 88 17 147 15
286 -7 74 -12 86 -11 117 4 45 21 66 63 73 145 4 60 -9 154 -31 212 -4 10 4
21 23 31 16 10 31 29 35 45 4 16 23 61 42 101 19 39 34 77 34 83 0 13 -61 40
-91 40 -12 0 -41 -11 -64 -25 l-42 -24 -56 54 c-30 29 -74 63 -97 75 -54 28
-133 35 -183 16z m148 -67 c25 -12 73 -52 110 -90 35 -38 70 -69 76 -69 6 0
29 16 50 35 42 38 75 47 66 18 -3 -10 -17 -45 -31 -78 -23 -56 -27 -60 -63
-65 -33 -4 -38 -8 -36 -30 1 -14 13 -56 27 -95 31 -85 34 -173 8 -225 -15 -31
-21 -35 -57 -35 -22 1 -82 7 -133 15 -78 12 -107 12 -180 1 -175 -26 -168 -27
-188 5 -31 46 -25 180 10 267 33 79 30 100 -15 95 -20 -2 -34 2 -40 12 -22 40
-59 134 -54 138 7 8 62 -18 81 -39 9 -10 24 -19 32 -19 8 0 43 31 78 69 100
108 169 132 259 90z"/>
<path d="M315 700 c-3 -5 -3 -16 2 -22 4 -7 8 -26 8 -43 0 -36 25 -44 62 -20
l25 17 -38 39 c-40 41 -49 45 -59 29z"/>
<path d="M585 670 c-44 -45 -40 -61 16 -63 31 -2 34 0 34 28 0 17 4 36 8 43 8
12 1 32 -12 32 -4 0 -25 -18 -46 -40z"/>
<path d="M415 560 c-14 -27 -14 -31 0 -36 27 -11 45 4 45 36 0 40 -24 40 -45
0z"/>
<path d="M500 555 c0 -30 3 -35 23 -35 34 0 38 9 21 41 -21 41 -44 38 -44 -6z"/>
<path d="M311 423 c-6 -31 -11 -66 -11 -78 0 -16 -9 -25 -32 -31 -23 -7 -34
-17 -36 -32 -5 -34 20 -36 95 -11 94 32 212 32 306 0 75 -25 100 -23 95 11 -2
15 -15 25 -44 35 -37 12 -43 19 -54 58 -7 25 -16 45 -21 45 -4 0 -13 -16 -19
-35 -6 -19 -18 -35 -26 -35 -27 0 -52 19 -58 45 -8 33 -21 32 -36 -4 -9 -22
-21 -31 -47 -36 -42 -8 -46 -4 -62 71 -16 71 -35 70 -50 -3z"/>
</g>
</svg>
